<svg width="384" height="576" viewBox="0 0 384 576" fill="none" xmlns="http://www.w3.org/2000/svg">
<rect x="355.689" y="575.952" width="575.952" height="28.3095" transform="rotate(-90 355.689 575.952)" fill="#FFBEBE"/>
<rect x="0.0214844" width="383.643" height="28.698" fill="#FFBEBE"/>
<rect x="0.0214844" y="575.952" width="575.952" height="28.3095" transform="rotate(-90 0.0214844 575.952)" fill="#FFBEBE"/>
<rect y="492.875" width="383.643" height="83.1251" fill="#FFBEBE"/>
<path d="M68.5374 482.376C68.5374 482.376 73.4107 477.599 70.9457 473.278C68.4807 468.958 63.8926 468.435 62.7544 469.474C62.7544 469.474 59.5607 460.434 52.8726 461.486C46.1845 462.538 44.0276 469.625 45.3084 474.862C45.3084 474.862 37.5751 482.133 43.6144 490.079C43.6144 490.079 49.9267 495.654 54.0024 490.515C54.0024 490.515 58.7983 499.033 64.5705 495.185C70.3427 491.337 68.5374 482.376 68.5374 482.376Z" fill="#EA5A47"/>
<path d="M45.3409 467.18C42.8759 466.091 40.5644 465.297 38.4534 466.091C36.2349 466.925 34.7293 469.162 34.1795 471.456C33.5995 473.88 34.0563 476.731 35.8011 478.903C37.2765 480.741 39.7572 481.373 42.2536 482.228L44.4781 474.6L45.3409 467.18Z" fill="#D22F27"/>
<path d="M55.2334 487.083C53.839 485.418 54.4976 481.929 56.704 479.292C58.9104 476.654 61.8273 475.867 63.2217 477.533" fill="#EA5A47"/>
<path d="M46.1559 480.641C45.9988 479.428 46.4289 478.06 46.9509 476.921C47.6427 475.401 48.6015 474.078 49.7615 473.043C51.7659 471.257 54.1846 470.257 56.6841 470.183C58.9723 470.109 61.2248 470.873 63.1402 472.371C63.1402 472.371 63.1712 472.397 63.2284 472.449C63.6175 472.811 65.1617 474.434 64.9563 477.356C64.8693 478.593 64.357 479.874 63.6984 480.91C62.8277 482.293 61.7168 483.434 60.442 484.255C58.2523 485.661 55.7489 486.212 53.2838 485.829C51.0244 485.481 48.9101 484.307 47.2301 482.468" fill="#D22F27"/>
<path d="M62.6055 477.395C61.228 475.745 58.6881 476.629 56.3741 479.167C54.0602 481.705 53.2639 485.173 54.5979 486.909L54.8673 487.23C56.2787 488.877 59.2379 488.081 61.4793 485.451C63.7196 482.822 64.0169 479.043 62.6055 477.395Z" fill="#EA5A47"/>
<path d="M57.1443 479.517C58.8759 480.34 59.584 483.105 58.7236 485.692C58.279 487.035 57.351 488.055 56.2985 488.665C54.6648 489.607 52.6312 489.205 51.3782 487.636C51.2015 487.426 51.0564 487.181 50.9492 486.911" fill="#D22F27"/>
<path d="M57.9888 480.527C57.3001 478.455 54.9873 477.609 52.8232 478.637C51.7007 479.17 50.8464 480.278 50.3377 481.538C49.5486 483.489 49.8846 485.92 51.198 487.417C51.3889 487.636 51.5919 487.817 51.8034 487.931" fill="#D22F27"/>
<path d="M14.5367 484.069C16.3987 479.474 21.3903 477.764 21.3903 477.764C21.3903 477.764 23.3599 483.507 21.4979 488.103C19.6346 492.698 14.643 494.407 14.643 494.407C14.643 494.407 12.6758 488.663 14.5367 484.069Z" fill="#B1CC33"/>
<path d="M54.6491 509.242C54.4267 510.662 52.8486 511.5 51.1256 511.114C49.4025 510.729 48.1857 509.266 48.4068 507.847L50.0791 504.061C51.1521 501.87 51.1981 501.854 52.3399 502.134L52.6976 502.214C53.8479 502.443 53.8854 502.478 54.2286 504.984L54.6503 509.237" fill="#EA5A47"/>
<path d="M68.7493 483.147C71.404 481.718 72.4878 476.53 70.9073 473.426C69.3933 470.453 65.094 467.313 62.4381 468.741M48.4976 475.085C49.4756 473.913 50.6377 472.984 51.9171 472.35C53.1966 471.717 54.5681 471.392 55.953 471.393C57.3381 471.391 58.7099 471.716 59.9895 472.35C61.2692 472.984 62.4315 473.913 63.4096 475.085M53.929 491.382C48.7658 496.273 42.9501 491.598 41.923 488.614C40.2918 483.878 41.4651 477.326 44.405 475.262M61.5125 478.255C62.9058 479.921 62.6242 482.961 60.8818 485.043C59.1394 487.125 56.597 487.463 55.2026 485.797" stroke="black" stroke-width="0.5" stroke-miterlimit="10" stroke-linecap="round" stroke-linejoin="round"/>
<path d="M51.6255 485.653C50.6335 484.468 50.8341 482.305 52.0738 480.823C52.7179 480.054 53.6132 479.677 54.4941 479.632C55.8583 479.563 57.1645 480.564 57.6382 482.095C57.7071 482.318 57.7506 482.54 57.753 482.748M54.6488 509.242C54.4264 510.662 52.8484 511.5 51.1253 511.114C49.4022 510.728 48.1854 509.265 48.4065 507.847L50.0789 504.061C51.1519 501.87 51.1978 501.854 52.3397 502.134L52.6973 502.213C53.8477 502.443 53.8851 502.478 54.2283 504.984L54.65 509.236M38.1925 479.37C37.5268 479.142 36.9052 478.759 36.3632 478.244C35.8211 477.729 35.3692 477.092 35.0332 476.368C34.6973 475.644 34.4839 474.849 34.4052 474.026C34.3266 473.204 34.3842 472.371 34.5747 471.575C34.7653 470.78 35.0851 470.036 35.5159 469.388C35.9468 468.74 36.4801 468.2 37.0856 467.799C37.691 467.397 38.3567 467.142 39.0446 467.048C39.7326 466.954 40.4292 467.023 41.0949 467.251M68.7488 483.147C69.2011 484.31 69.4572 485.568 69.5026 486.85C69.548 488.132 69.3819 489.411 69.0135 490.616C68.6452 491.821 68.082 492.927 67.3561 493.872C66.6301 494.816 65.7556 495.581 64.7825 496.121C63.8094 496.662 62.7567 496.968 61.6846 497.023C60.6125 497.077 59.542 496.878 58.5341 496.438C57.5262 495.998 56.6007 495.324 55.8105 494.457C55.0203 493.589 54.3808 492.543 53.9286 491.38M62.4377 468.741C62.0795 467.326 61.4915 466.009 60.7075 464.865C59.9234 463.721 58.9585 462.773 57.8679 462.075C56.7774 461.377 55.5825 460.942 54.3514 460.796C53.1204 460.65 51.8774 460.795 50.6933 461.224C49.5092 461.652 48.4073 462.355 47.4504 463.292C46.4936 464.229 45.7005 465.383 45.1166 466.686C44.5326 467.99 44.1692 469.418 44.047 470.89C43.9248 472.362 44.0463 473.848 44.4045 475.263" stroke="black" stroke-width="0.5" stroke-miterlimit="10" stroke-linecap="round" stroke-linejoin="round"/>
<path d="M50.8652 454.769C47.6752 445.556 38.8387 441.181 31.1331 444.996C23.4276 448.811 19.7651 459.373 22.9575 468.587C22.9575 468.587 35.8348 500.643 34.6264 515.088M14.5367 484.068C16.3987 479.473 21.3903 477.763 21.3903 477.763C21.3903 477.763 23.3599 483.506 21.4979 488.103C19.6346 492.697 14.643 494.406 14.643 494.406C14.643 494.406 12.6758 488.663 14.5367 484.068Z" stroke="black" stroke-width="0.5" stroke-linecap="round" stroke-linejoin="round"/>
<path d="M314.463 482.376C314.463 482.376 309.589 477.599 312.054 473.278C314.519 468.958 319.107 468.435 320.246 469.474C320.246 469.474 323.439 460.434 330.127 461.486C336.816 462.538 338.972 469.625 337.692 474.862C337.692 474.862 345.425 482.133 339.386 490.079C339.386 490.079 333.073 495.654 328.998 490.515C328.998 490.515 324.202 499.033 318.43 495.185C312.657 491.337 314.463 482.376 314.463 482.376Z" fill="#EA5A47"/>
<path d="M337.659 467.18C340.124 466.091 342.436 465.297 344.547 466.091C346.765 466.925 348.271 469.162 348.82 471.456C349.4 473.88 348.944 476.731 347.199 478.903C345.724 480.741 343.243 481.373 340.746 482.228L338.522 474.6L337.659 467.18Z" fill="#D22F27"/>
<path d="M327.767 487.083C329.161 485.418 328.502 481.929 326.296 479.292C324.09 476.654 321.173 475.867 319.778 477.533" fill="#EA5A47"/>
<path d="M336.844 480.641C337.001 479.428 336.571 478.06 336.049 476.921C335.357 475.401 334.398 474.078 333.238 473.043C331.234 471.257 328.815 470.257 326.316 470.183C324.028 470.109 321.775 470.873 319.86 472.371C319.86 472.371 319.829 472.397 319.772 472.449C319.383 472.811 317.838 474.434 318.044 477.356C318.131 478.593 318.643 479.874 319.302 480.91C320.172 482.293 321.283 483.434 322.558 484.255C324.748 485.661 327.251 486.212 329.716 485.829C331.976 485.481 334.09 484.307 335.77 482.468" fill="#D22F27"/>
<path d="M320.394 477.395C321.772 475.745 324.312 476.629 326.626 479.167C328.94 481.705 329.736 485.173 328.402 486.909L328.133 487.23C326.721 488.877 323.762 488.081 321.521 485.451C319.28 482.822 318.983 479.043 320.394 477.395Z" fill="#EA5A47"/>
<path d="M325.856 479.517C324.124 480.34 323.416 483.105 324.276 485.692C324.721 487.035 325.649 488.055 326.701 488.665C328.335 489.607 330.369 489.205 331.622 487.636C331.799 487.426 331.944 487.181 332.051 486.911" fill="#D22F27"/>
<path d="M325.011 480.527C325.7 478.455 328.013 477.609 330.177 478.637C331.299 479.17 332.154 480.278 332.662 481.538C333.451 483.489 333.115 485.92 331.802 487.417C331.611 487.636 331.408 487.817 331.197 487.931" fill="#D22F27"/>
<path d="M368.463 484.069C366.601 479.474 361.61 477.764 361.61 477.764C361.61 477.764 359.64 483.507 361.502 488.103C363.365 492.698 368.357 494.407 368.357 494.407C368.357 494.407 370.324 488.663 368.463 484.069Z" fill="#B1CC33"/>
<path d="M328.351 509.242C328.573 510.662 330.151 511.5 331.874 511.114C333.598 510.729 334.814 509.266 334.593 507.847L332.921 504.061C331.848 501.87 331.802 501.854 330.66 502.134L330.302 502.214C329.152 502.443 329.115 502.478 328.771 504.984L328.35 509.237" fill="#EA5A47"/>
<path d="M314.251 483.147C311.596 481.718 310.512 476.53 312.093 473.426C313.607 470.453 317.906 467.313 320.562 468.741M334.502 475.085C333.524 473.913 332.362 472.984 331.083 472.35C329.803 471.717 328.432 471.392 327.047 471.393C325.662 471.391 324.29 471.716 323.01 472.35C321.731 472.984 320.569 473.913 319.59 475.085M329.071 491.382C334.234 496.273 340.05 491.598 341.077 488.614C342.708 483.878 341.535 477.326 338.595 475.262M321.487 478.255C320.094 479.921 320.376 482.961 322.118 485.043C323.861 487.125 326.403 487.463 327.797 485.797" stroke="black" stroke-width="0.5" stroke-miterlimit="10" stroke-linecap="round" stroke-linejoin="round"/>
<path d="M331.374 485.653C332.367 484.468 332.166 482.305 330.926 480.823C330.282 480.054 329.387 479.677 328.506 479.632C327.142 479.563 325.835 480.564 325.362 482.095C325.293 482.318 325.249 482.54 325.247 482.748M328.351 509.242C328.574 510.662 330.152 511.5 331.875 511.114C333.598 510.728 334.815 509.265 334.593 507.847L332.921 504.061C331.848 501.87 331.802 501.854 330.66 502.134L330.303 502.213C329.152 502.443 329.115 502.478 328.772 504.984L328.35 509.236M344.808 479.37C345.473 479.142 346.095 478.759 346.637 478.244C347.179 477.729 347.631 477.092 347.967 476.368C348.303 475.644 348.516 474.849 348.595 474.026C348.673 473.204 348.616 472.371 348.425 471.575C348.235 470.78 347.915 470.036 347.484 469.388C347.053 468.74 346.52 468.2 345.914 467.799C345.309 467.397 344.643 467.142 343.955 467.048C343.267 466.954 342.571 467.023 341.905 467.251M314.251 483.147C313.799 484.31 313.543 485.568 313.497 486.85C313.452 488.132 313.618 489.411 313.986 490.616C314.355 491.821 314.918 492.927 315.644 493.872C316.37 494.816 317.244 495.581 318.218 496.121C319.191 496.662 320.243 496.968 321.315 497.023C322.387 497.077 323.458 496.878 324.466 496.438C325.474 495.998 326.399 495.324 327.189 494.457C327.98 493.589 328.619 492.543 329.071 491.38M320.562 468.741C320.921 467.326 321.508 466.009 322.293 464.865C323.077 463.721 324.041 462.773 325.132 462.075C326.223 461.377 327.418 460.942 328.649 460.796C329.88 460.65 331.123 460.795 332.307 461.224C333.491 461.652 334.593 462.355 335.55 463.292C336.506 464.229 337.299 465.383 337.883 466.686C338.467 467.99 338.831 469.418 338.953 470.89C339.075 472.362 338.954 473.848 338.595 475.263" stroke="black" stroke-width="0.5" stroke-miterlimit="10" stroke-linecap="round" stroke-linejoin="round"/>
<path d="M332.135 454.769C335.325 445.556 344.161 441.181 351.867 444.996C359.572 448.811 363.235 459.373 360.042 468.587C360.042 468.587 347.165 500.643 348.374 515.088M368.463 484.068C366.601 479.473 361.61 477.763 361.61 477.763C361.61 477.763 359.64 483.506 361.502 488.103C363.365 492.697 368.357 494.406 368.357 494.406C368.357 494.406 370.324 488.663 368.463 484.068Z" stroke="black" stroke-width="0.5" stroke-linecap="round" stroke-linejoin="round"/>
<path d="M68.5374 54.3755C68.5374 54.3755 73.4107 49.5988 70.9457 45.2784C68.4807 40.9581 63.8926 40.4352 62.7544 41.4738C62.7544 41.4738 59.5607 32.4344 52.8726 33.486C46.1845 34.5375 44.0276 41.6254 45.3084 46.8615C45.3084 46.8615 37.5751 54.1329 43.6144 62.0788C43.6144 62.0788 49.9267 67.6543 54.0024 62.515C54.0024 62.515 58.7983 71.0329 64.5705 67.1849C70.3427 63.3369 68.5374 54.3755 68.5374 54.3755Z" fill="#EA5A47"/>
<path d="M45.3409 39.1802C42.8759 38.0911 40.5644 37.2967 38.4534 38.0911C36.2349 38.9245 34.7293 41.162 34.1795 43.4558C33.5995 45.8795 34.0563 48.7309 35.8011 50.9033C37.2765 52.7407 39.7572 53.3733 42.2536 54.2284L44.4781 46.6003L45.3409 39.1802Z" fill="#D22F27"/>
<path d="M55.2334 59.0832C53.839 57.4178 54.4976 53.9294 56.704 51.2919C58.9104 48.6543 61.8273 47.8671 63.2217 49.5325" fill="#EA5A47"/>
<path d="M46.1559 52.6409C45.9988 51.4275 46.4289 50.0596 46.9509 48.9214C47.6427 47.4013 48.6015 46.0782 49.7615 45.0431C51.7659 43.2566 54.1846 42.2573 56.6841 42.1831C58.9723 42.1095 61.2248 42.873 63.1402 44.3714C63.1402 44.3714 63.1712 44.3974 63.2284 44.4494C63.6175 44.8105 65.1617 46.4341 64.9563 49.3562C64.8693 50.5926 64.357 51.8739 63.6984 52.9095C62.8277 54.2926 61.7168 55.4339 60.442 56.2549C58.2523 57.6612 55.7489 58.2119 53.2838 57.8293C51.0244 57.4812 48.9101 56.3073 47.2301 54.4681" fill="#D22F27"/>
<path d="M62.6055 49.3949C61.228 47.7454 58.6881 48.6294 56.3741 51.1672C54.0602 53.7051 53.2639 57.1732 54.5979 58.9095L54.8673 59.2301C56.2787 60.8768 59.2379 60.0809 61.4793 57.4506C63.7196 54.8217 64.0169 51.043 62.6055 49.3949Z" fill="#EA5A47"/>
<path d="M57.1443 51.5171C58.8759 52.3404 59.584 55.1051 58.7236 57.6921C58.279 59.0354 57.351 60.0552 56.2985 60.6648C54.6648 61.6065 52.6312 61.205 51.3782 59.6363C51.2015 59.4258 51.0564 59.1805 50.9492 58.9112" fill="#D22F27"/>
<path d="M57.9888 52.5266C57.3001 50.4553 54.9873 49.6088 52.8232 50.6373C51.7007 51.1703 50.8464 52.2782 50.3377 53.5377C49.5486 55.4892 49.8846 57.9202 51.198 59.4166C51.3889 59.6362 51.5919 59.8167 51.8034 59.9308" fill="#D22F27"/>
<path d="M14.5367 56.0687C16.3987 51.4739 21.3903 49.7637 21.3903 49.7637C21.3903 49.7637 23.3599 55.5068 21.4979 60.103C19.6346 64.6978 14.643 66.4066 14.643 66.4066C14.643 66.4066 12.6758 60.6634 14.5367 56.0687Z" fill="#B1CC33"/>
<path d="M54.6491 81.2424C54.4267 82.6623 52.8486 83.5001 51.1256 83.1144C49.4025 82.7287 48.1857 81.2655 48.4068 79.8471L50.0791 76.0612C51.1521 73.8699 51.1981 73.8541 52.3399 74.1343L52.6976 74.2137C53.8479 74.4434 53.8854 74.4781 54.2286 76.9842L54.6503 81.2366" fill="#EA5A47"/>
<path d="M68.7493 55.1469C71.404 53.7184 72.4878 48.5299 70.9073 45.4258C69.3933 42.4532 65.094 39.3129 62.4381 40.7415M48.4976 47.0855C49.4756 45.9134 50.6377 44.9839 51.9171 44.3503C53.1966 43.7167 54.5681 43.3915 55.953 43.3935C57.3381 43.3913 58.7099 43.7164 59.9895 44.35C61.2692 44.9836 62.4315 45.9132 63.4096 47.0855M53.929 63.3817C48.7658 68.2726 42.9501 63.5984 41.923 60.6142C40.2918 55.8778 41.4651 49.3258 44.405 47.2617M61.5125 50.2546C62.9058 51.9215 62.6242 54.9606 60.8818 57.0435C59.1394 59.1249 56.597 59.4629 55.2026 57.7975" stroke="black" stroke-width="0.5" stroke-miterlimit="10" stroke-linecap="round" stroke-linejoin="round"/>
<path d="M51.6255 57.6528C50.6335 56.4684 50.8341 54.3046 52.0738 52.8226C52.7179 52.0542 53.6132 51.6772 54.4941 51.6324C55.8583 51.5631 57.1645 52.5641 57.6382 54.0952C57.7071 54.3176 57.7506 54.5401 57.753 54.7481M54.6488 81.2421C54.4264 82.6619 52.8484 83.4997 51.1253 83.1141C49.4022 82.7284 48.1854 81.2652 48.4065 79.8467L50.0789 76.0608C51.1519 73.8696 51.1978 73.8537 52.3397 74.1339L52.6973 74.2134C53.8477 74.4431 53.8851 74.4777 54.2283 76.9838L54.65 81.2363M38.1925 51.3695C37.5268 51.1417 36.9052 50.7594 36.3632 50.2444C35.8211 49.7294 35.3692 49.0918 35.0332 48.3681C34.6973 47.6443 34.4839 46.8485 34.4052 46.0262C34.3266 45.2038 34.3842 44.371 34.5747 43.5753C34.7653 42.7795 35.0851 42.0365 35.5159 41.3885C35.9468 40.7405 36.4801 40.2003 37.0856 39.7987C37.691 39.3971 38.3567 39.142 39.0446 39.048C39.7326 38.9539 40.4292 39.0228 41.0949 39.2506M68.7488 55.1467C69.2011 56.31 69.4572 57.5683 69.5026 58.8499C69.548 60.1315 69.3819 61.4112 69.0135 62.6161C68.6452 63.8209 68.082 64.9272 67.3561 65.8718C66.6301 66.8164 65.7556 67.5808 64.7825 68.1214C63.8094 68.6621 62.7567 68.9682 61.6846 69.0225C60.6125 69.0768 59.542 68.8782 58.5341 68.4379C57.5262 67.9976 56.6007 67.3244 55.8105 66.4565C55.0203 65.5887 54.3808 64.5433 53.9286 63.3801M62.4377 40.7413C62.0795 39.3258 61.4915 38.0086 60.7075 36.8648C59.9234 35.7209 58.9585 34.7729 57.8679 34.0748C56.7774 33.3768 55.5825 32.9423 54.3514 32.7963C53.1204 32.6502 51.8774 32.7954 50.6933 33.2237C49.5092 33.6519 48.4073 34.3547 47.4504 35.292C46.4936 36.2293 45.7005 37.3827 45.1166 38.6864C44.5326 39.99 44.1692 41.4184 44.047 42.89C43.9248 44.3616 44.0463 45.8475 44.4045 47.2629" stroke="black" stroke-width="0.5" stroke-miterlimit="10" stroke-linecap="round" stroke-linejoin="round"/>
<path d="M50.8652 26.7691C47.6752 17.5565 38.8387 13.1812 31.1331 16.996C23.4276 20.8108 19.7651 31.3726 22.9575 40.5867C22.9575 40.5867 35.8348 72.6432 34.6264 87.0877M14.5367 56.0682C16.3987 51.4735 21.3903 49.7632 21.3903 49.7632C21.3903 49.7632 23.3599 55.5064 21.4979 60.1026C19.6346 64.6974 14.643 66.4061 14.643 66.4061C14.643 66.4061 12.6758 60.663 14.5367 56.0682Z" stroke="black" stroke-width="0.5" stroke-linecap="round" stroke-linejoin="round"/>
<path d="M314.463 54.3755C314.463 54.3755 309.589 49.5988 312.054 45.2784C314.519 40.9581 319.107 40.4352 320.246 41.4738C320.246 41.4738 323.439 32.4344 330.127 33.486C336.816 34.5375 338.972 41.6254 337.692 46.8615C337.692 46.8615 345.425 54.1329 339.386 62.0788C339.386 62.0788 333.073 67.6543 328.998 62.515C328.998 62.515 324.202 71.0329 318.43 67.1849C312.657 63.3369 314.463 54.3755 314.463 54.3755Z" fill="#EA5A47"/>
<path d="M337.659 39.1802C340.124 38.0911 342.436 37.2967 344.547 38.0911C346.765 38.9245 348.271 41.162 348.82 43.4558C349.4 45.8795 348.944 48.7309 347.199 50.9033C345.724 52.7407 343.243 53.3733 340.746 54.2284L338.522 46.6003L337.659 39.1802Z" fill="#D22F27"/>
<path d="M327.767 59.0832C329.161 57.4178 328.502 53.9294 326.296 51.2919C324.09 48.6543 321.173 47.8671 319.778 49.5325" fill="#EA5A47"/>
<path d="M336.844 52.6409C337.001 51.4275 336.571 50.0596 336.049 48.9214C335.357 47.4013 334.398 46.0782 333.238 45.0431C331.234 43.2566 328.815 42.2573 326.316 42.1831C324.028 42.1095 321.775 42.873 319.86 44.3714C319.86 44.3714 319.829 44.3974 319.772 44.4494C319.383 44.8105 317.838 46.4341 318.044 49.3562C318.131 50.5926 318.643 51.8739 319.302 52.9095C320.172 54.2926 321.283 55.4339 322.558 56.2549C324.748 57.6612 327.251 58.2119 329.716 57.8293C331.976 57.4812 334.09 56.3073 335.77 54.4681" fill="#D22F27"/>
<path d="M320.394 49.3949C321.772 47.7454 324.312 48.6294 326.626 51.1672C328.94 53.7051 329.736 57.1732 328.402 58.9095L328.133 59.2301C326.721 60.8768 323.762 60.0809 321.521 57.4506C319.28 54.8217 318.983 51.043 320.394 49.3949Z" fill="#EA5A47"/>
<path d="M325.856 51.5171C324.124 52.3404 323.416 55.1051 324.276 57.6921C324.721 59.0354 325.649 60.0552 326.701 60.6648C328.335 61.6065 330.369 61.205 331.622 59.6363C331.799 59.4258 331.944 59.1805 332.051 58.9112" fill="#D22F27"/>
<path d="M325.011 52.5266C325.7 50.4553 328.013 49.6088 330.177 50.6373C331.299 51.1703 332.154 52.2782 332.662 53.5377C333.451 55.4892 333.115 57.9202 331.802 59.4166C331.611 59.6362 331.408 59.8167 331.197 59.9308" fill="#D22F27"/>
<path d="M368.463 56.0687C366.601 51.4739 361.61 49.7637 361.61 49.7637C361.61 49.7637 359.64 55.5068 361.502 60.103C363.365 64.6978 368.357 66.4066 368.357 66.4066C368.357 66.4066 370.324 60.6634 368.463 56.0687Z" fill="#B1CC33"/>
<path d="M328.351 81.2424C328.573 82.6623 330.151 83.5001 331.874 83.1144C333.598 82.7287 334.814 81.2655 334.593 79.8471L332.921 76.0612C331.848 73.8699 331.802 73.8541 330.66 74.1343L330.302 74.2137C329.152 74.4434 329.115 74.4781 328.771 76.9842L328.35 81.2366" fill="#EA5A47"/>
<path d="M314.251 55.1469C311.596 53.7184 310.512 48.5299 312.093 45.4258C313.607 42.4532 317.906 39.3129 320.562 40.7415M334.502 47.0855C333.524 45.9134 332.362 44.9839 331.083 44.3503C329.803 43.7167 328.432 43.3915 327.047 43.3935C325.662 43.3913 324.29 43.7164 323.01 44.35C321.731 44.9836 320.569 45.9132 319.59 47.0855M329.071 63.3817C334.234 68.2726 340.05 63.5984 341.077 60.6142C342.708 55.8778 341.535 49.3258 338.595 47.2617M321.487 50.2546C320.094 51.9215 320.376 54.9606 322.118 57.0435C323.861 59.1249 326.403 59.4629 327.797 57.7975" stroke="black" stroke-width="0.5" stroke-miterlimit="10" stroke-linecap="round" stroke-linejoin="round"/>
<path d="M331.374 57.6528C332.367 56.4684 332.166 54.3046 330.926 52.8226C330.282 52.0542 329.387 51.6772 328.506 51.6324C327.142 51.5631 325.835 52.5641 325.362 54.0952C325.293 54.3176 325.249 54.5401 325.247 54.7481M328.351 81.2421C328.574 82.6619 330.152 83.4997 331.875 83.1141C333.598 82.7284 334.815 81.2652 334.593 79.8467L332.921 76.0608C331.848 73.8696 331.802 73.8537 330.66 74.1339L330.303 74.2134C329.152 74.4431 329.115 74.4777 328.772 76.9838L328.35 81.2363M344.808 51.3695C345.473 51.1417 346.095 50.7594 346.637 50.2444C347.179 49.7294 347.631 49.0918 347.967 48.3681C348.303 47.6443 348.516 46.8485 348.595 46.0262C348.673 45.2038 348.616 44.371 348.425 43.5753C348.235 42.7795 347.915 42.0365 347.484 41.3885C347.053 40.7405 346.52 40.2003 345.914 39.7987C345.309 39.3971 344.643 39.142 343.955 39.048C343.267 38.9539 342.571 39.0228 341.905 39.2506M314.251 55.1467C313.799 56.31 313.543 57.5683 313.497 58.8499C313.452 60.1315 313.618 61.4112 313.986 62.6161C314.355 63.8209 314.918 64.9272 315.644 65.8718C316.37 66.8164 317.244 67.5808 318.218 68.1214C319.191 68.6621 320.243 68.9682 321.315 69.0225C322.387 69.0768 323.458 68.8782 324.466 68.4379C325.474 67.9976 326.399 67.3244 327.189 66.4565C327.98 65.5887 328.619 64.5433 329.071 63.3801M320.562 40.7413C320.921 39.3258 321.508 38.0086 322.293 36.8648C323.077 35.7209 324.041 34.7729 325.132 34.0748C326.223 33.3768 327.418 32.9423 328.649 32.7963C329.88 32.6502 331.123 32.7954 332.307 33.2237C333.491 33.6519 334.593 34.3547 335.55 35.292C336.506 36.2293 337.299 37.3827 337.883 38.6864C338.467 39.99 338.831 41.4184 338.953 42.89C339.075 44.3616 338.954 45.8475 338.595 47.2629" stroke="black" stroke-width="0.5" stroke-miterlimit="10" stroke-linecap="round" stroke-linejoin="round"/>
<path d="M332.135 26.7691C335.325 17.5565 344.161 13.1812 351.867 16.996C359.572 20.8108 363.235 31.3726 360.042 40.5867C360.042 40.5867 347.165 72.6432 348.374 87.0877M368.463 56.0682C366.601 51.4735 361.61 49.7632 361.61 49.7632C361.61 49.7632 359.64 55.5064 361.502 60.1026C363.365 64.6974 368.357 66.4061 368.357 66.4061C368.357 66.4061 370.324 60.663 368.463 56.0682Z" stroke="black" stroke-width="0.5" stroke-linecap="round" stroke-linejoin="round"/>
</svg>
