<svg width="384" height="576" viewBox="0 0 384 576" fill="none" xmlns="http://www.w3.org/2000/svg">
<rect x="355.689" y="575.952" width="575.952" height="28.3095" transform="rotate(-90 355.689 575.952)" fill="black"/>
<path d="M366.794 133.64V128.537H367.6L374.475 131.771V132.85L367.6 129.509V133.64H366.794Z" fill="white"/>
<g clip-path="url(#clip0_138_6)">
<path d="M367.526 122.323H372.161C372.514 122.323 372.729 121.598 372.537 121.04L370.219 114.257C370.179 114.138 370.123 114.04 370.057 113.972C369.991 113.904 369.916 113.869 369.841 113.869C369.765 113.869 369.691 113.904 369.625 113.972C369.559 114.04 369.503 114.138 369.463 114.257L367.15 121.04C367.106 121.166 367.081 121.311 367.078 121.46C367.075 121.61 367.094 121.758 367.133 121.89C367.171 122.021 367.228 122.131 367.297 122.207C367.366 122.283 367.445 122.324 367.526 122.323Z" fill="white"/>
</g>
<g clip-path="url(#clip1_138_6)">
<path d="M372.162 139.655H367.527C367.173 139.655 366.958 140.38 367.151 140.938L369.468 147.721C369.509 147.84 369.565 147.938 369.631 148.006C369.697 148.074 369.771 148.109 369.847 148.109C369.922 148.109 369.996 148.074 370.062 148.006C370.128 147.938 370.184 147.84 370.225 147.721L372.538 140.938C372.581 140.812 372.606 140.667 372.609 140.518C372.612 140.368 372.593 140.22 372.555 140.088C372.516 139.957 372.46 139.847 372.39 139.771C372.321 139.695 372.242 139.654 372.162 139.655Z" fill="white"/>
</g>
<path d="M366.794 381.619V376.517H367.6L374.475 379.75V380.83L367.6 377.489V381.619H366.794Z" fill="white"/>
<g clip-path="url(#clip2_138_6)">
<path d="M367.526 370.303H372.161C372.514 370.303 372.729 369.578 372.537 369.019L370.219 362.236C370.179 362.117 370.123 362.019 370.057 361.952C369.991 361.884 369.916 361.848 369.841 361.848C369.765 361.848 369.691 361.884 369.625 361.952C369.559 362.019 369.503 362.117 369.463 362.236L367.15 369.019C367.106 369.145 367.081 369.29 367.078 369.44C367.075 369.59 367.094 369.738 367.133 369.869C367.171 370.001 367.228 370.11 367.297 370.187C367.366 370.263 367.445 370.303 367.526 370.303Z" fill="white"/>
</g>
<g clip-path="url(#clip3_138_6)">
<path d="M372.162 387.634H367.527C367.173 387.634 366.958 388.359 367.151 388.918L369.468 395.701C369.509 395.82 369.565 395.918 369.631 395.985C369.697 396.053 369.771 396.089 369.847 396.089C369.922 396.089 369.996 396.053 370.062 395.985C370.128 395.918 370.184 395.82 370.225 395.701L372.538 388.918C372.581 388.792 372.606 388.647 372.609 388.497C372.612 388.347 372.593 388.199 372.555 388.068C372.516 387.936 372.46 387.827 372.39 387.75C372.321 387.674 372.242 387.634 372.162 387.634Z" fill="white"/>
</g>
<rect x="0.0214844" width="383.643" height="28.698" fill="black"/>
<rect x="0.0214844" y="575.952" width="575.952" height="28.3095" transform="rotate(-90 0.0214844 575.952)" fill="black"/>
<path d="M11.1279 133.64V128.537H11.9336L18.8086 131.771V132.85L11.9336 129.509V133.64H11.1279Z" fill="white"/>
<g clip-path="url(#clip4_138_6)">
<path d="M11.8595 122.323H16.4948C16.8483 122.323 17.063 121.598 16.8706 121.04L14.553 114.257C14.5127 114.138 14.4568 114.04 14.3907 113.972C14.3246 113.904 14.2504 113.869 14.1749 113.869C14.0995 113.869 14.0252 113.904 13.9591 113.972C13.893 114.04 13.8372 114.138 13.7969 114.257L11.4837 121.04C11.4401 121.166 11.4154 121.311 11.4124 121.46C11.4094 121.61 11.4281 121.758 11.4666 121.89C11.5051 122.021 11.5619 122.131 11.6311 122.207C11.7002 122.283 11.7792 122.324 11.8595 122.323Z" fill="white"/>
</g>
<g clip-path="url(#clip5_138_6)">
<path d="M16.4959 139.655H11.8607C11.5072 139.655 11.2924 140.38 11.4848 140.938L13.8025 147.721C13.8428 147.84 13.8986 147.938 13.9647 148.006C14.0308 148.074 14.1051 148.109 14.1805 148.109C14.256 148.109 14.3302 148.074 14.3963 148.006C14.4624 147.938 14.5183 147.84 14.5586 147.721L16.8718 140.938C16.9154 140.812 16.94 140.667 16.943 140.518C16.9461 140.368 16.9273 140.22 16.8888 140.088C16.8504 139.957 16.7935 139.847 16.7244 139.771C16.6552 139.695 16.5763 139.654 16.4959 139.655Z" fill="white"/>
</g>
<path d="M11.1279 383.619V378.517H11.9336L18.8086 381.75V382.83L11.9336 379.489V383.619H11.1279Z" fill="white"/>
<g clip-path="url(#clip6_138_6)">
<path d="M11.8595 372.302H16.4948C16.8483 372.302 17.063 371.577 16.8706 371.019L14.553 364.236C14.5127 364.117 14.4568 364.019 14.3907 363.951C14.3246 363.883 14.2504 363.848 14.1749 363.848C14.0995 363.848 14.0252 363.883 13.9591 363.951C13.893 364.019 13.8372 364.117 13.7969 364.236L11.4837 371.019C11.4401 371.145 11.4154 371.29 11.4124 371.439C11.4094 371.589 11.4281 371.737 11.4666 371.869C11.5051 372 11.5619 372.11 11.6311 372.186C11.7002 372.262 11.7792 372.303 11.8595 372.302Z" fill="white"/>
</g>
<g clip-path="url(#clip7_138_6)">
<path d="M16.4959 389.635H11.8607C11.5072 389.635 11.2924 390.36 11.4848 390.918L13.8025 397.701C13.8428 397.82 13.8986 397.918 13.9647 397.986C14.0308 398.054 14.1051 398.089 14.1805 398.089C14.256 398.089 14.3302 398.054 14.3963 397.986C14.4624 397.918 14.5183 397.82 14.5586 397.701L16.8718 390.918C16.9154 390.792 16.94 390.647 16.943 390.498C16.9461 390.348 16.9273 390.2 16.8888 390.068C16.8504 389.937 16.7935 389.827 16.7244 389.751C16.6552 389.675 16.5763 389.634 16.4959 389.635Z" fill="white"/>
</g>
<rect y="492.875" width="383.643" height="83.1251" fill="black"/>
<path d="M140.402 522.881C142.176 522.881 143.632 523.236 144.77 523.945C145.928 524.636 146.824 525.298 147.458 525.933C147.533 526.008 147.57 526.092 147.57 526.185C147.57 526.241 147.542 526.316 147.486 526.409C147.449 526.484 147.421 526.54 147.402 526.577C147.309 526.708 147.15 526.941 146.926 527.277C146.721 527.594 146.553 527.828 146.422 527.977C146.366 528.052 146.301 528.136 146.226 528.229C146.17 528.304 146.114 528.36 146.058 528.397C146.021 528.434 145.956 528.453 145.862 528.453C145.825 528.453 145.732 528.397 145.582 528.285C145.452 528.154 145.321 528.042 145.19 527.949C144.444 527.296 143.716 526.736 143.006 526.269C142.297 525.802 141.616 525.569 140.962 525.569C140.44 525.569 140.01 525.69 139.674 525.933C139.338 526.157 139.17 526.68 139.17 527.501C139.17 528.304 139.469 528.929 140.066 529.377C140.664 529.825 141.457 530.254 142.446 530.665C142.54 530.702 143.081 530.936 144.07 531.365C145.078 531.794 145.965 532.616 146.73 533.829C147.514 535.042 147.906 536.489 147.906 538.169C147.906 539.961 147.234 541.305 145.89 542.201C144.546 543.097 142.689 543.545 140.318 543.545C137.63 543.545 135.922 543.032 135.194 542.005C134.466 540.96 134.084 540.418 134.046 540.381C133.972 540.288 133.934 540.194 133.934 540.101C133.934 540.045 134.009 539.924 134.158 539.737C134.401 539.401 134.756 539 135.222 538.533C135.297 538.458 135.372 538.421 135.446 538.421C135.54 538.421 135.642 538.496 135.754 538.645C135.866 538.776 135.96 538.878 136.034 538.953C137.136 540.054 138.386 540.605 139.786 540.605C140.496 540.605 141.112 540.474 141.634 540.213C142.157 539.933 142.418 539.42 142.418 538.673C142.418 537.385 141.401 536.013 139.366 534.557C139.03 534.333 138.713 534.146 138.414 533.997C137.63 533.568 136.958 533.148 136.398 532.737C135.838 532.326 135.344 531.785 134.914 531.113C134.485 530.441 134.27 529.657 134.27 528.761C134.27 527.641 134.616 526.633 135.306 525.737C136.016 524.841 136.856 524.141 137.826 523.637C138.816 523.133 139.674 522.881 140.402 522.881ZM158.635 525.513C158.635 524.356 158.645 523.637 158.663 523.357C158.663 523.002 158.785 522.788 159.027 522.713C159.27 522.638 159.625 522.601 160.091 522.601C160.502 522.601 161.025 522.582 161.659 522.545C162.313 522.489 162.817 522.433 163.171 522.377C163.433 522.358 163.619 522.405 163.731 522.517C163.843 522.61 163.899 522.778 163.899 523.021C163.899 523.096 163.881 523.301 163.843 523.637C163.806 523.917 163.787 525.774 163.787 529.209V535.537C163.787 536.489 163.797 537.544 163.815 538.701C163.853 539.84 163.89 540.866 163.927 541.781C163.965 542.696 163.983 542.948 163.983 542.537C163.983 542.836 163.834 542.985 163.535 542.985C163.405 542.985 163.293 542.976 163.199 542.957C163.125 542.938 162.975 542.929 162.751 542.929C162.527 542.929 162.173 542.948 161.687 542.985C161.165 543.022 160.801 543.041 160.595 543.041C160.241 543.041 159.97 542.966 159.783 542.817C159.615 542.668 159.438 542.397 159.251 542.005L158.775 541.053C158.215 539.802 157.721 538.822 157.291 538.113C157.049 537.702 156.433 536.573 155.443 534.725L154.211 532.401V533.465V534.109C154.211 534.258 154.202 534.445 154.183 534.669C154.183 534.893 154.193 535.145 154.211 535.425C154.211 536.396 154.221 537.665 154.239 539.233C154.277 540.801 154.323 541.744 154.379 542.061C154.398 542.154 154.407 542.266 154.407 542.397C154.407 542.584 154.37 542.705 154.295 542.761C154.221 542.798 154.081 542.808 153.875 542.789C153.577 542.789 153.222 542.808 152.811 542.845C152.419 542.882 152.046 542.92 151.691 542.957C151.411 542.994 151.225 542.948 151.131 542.817C151.057 542.686 151.029 542.397 151.047 541.949C151.047 541.277 151.019 540.092 150.963 538.393C150.889 536.62 150.842 535.08 150.823 533.773C150.823 532.448 150.851 531.104 150.907 529.741C150.945 528.024 150.963 526.848 150.963 526.213C150.963 525.354 150.935 524.729 150.879 524.337C150.842 524.001 150.823 523.786 150.823 523.693C150.823 523.357 150.879 523.133 150.991 523.021C151.103 522.89 151.253 522.825 151.439 522.825C151.533 522.825 151.719 522.834 151.999 522.853C152.279 522.853 152.681 522.788 153.203 522.657C153.409 522.62 153.614 522.601 153.819 522.601C153.931 522.601 154.09 522.61 154.295 522.629C154.501 522.648 154.771 522.657 155.107 522.657C155.537 522.657 155.891 522.825 156.171 523.161C156.47 523.497 156.787 523.973 157.123 524.589L157.403 525.093C157.627 525.504 157.898 525.942 158.215 526.409L158.635 527.053V525.513ZM181.698 542.397C181.792 542.584 181.838 542.705 181.838 542.761C181.838 542.91 181.67 542.985 181.334 542.985H179.318C179.244 542.985 179.169 542.92 179.094 542.789C179.02 542.658 178.954 542.528 178.898 542.397C178.842 542.266 178.796 542.154 178.758 542.061C178.665 541.874 178.488 541.445 178.226 540.773C177.984 540.101 177.797 539.569 177.666 539.177C177.61 538.99 177.498 538.72 177.33 538.365C177.162 537.992 177.041 537.73 176.966 537.581C176.892 537.357 176.817 537.208 176.742 537.133C176.686 537.058 176.593 537.021 176.462 537.021C176.332 537.021 176.164 537.03 175.958 537.049C175.772 537.068 175.566 537.086 175.342 537.105C175.193 537.142 174.726 537.161 173.942 537.161C173.401 537.161 172.869 537.18 172.346 537.217C172.178 537.236 171.88 537.245 171.45 537.245L169.966 537.217C169.873 537.217 169.798 537.254 169.742 537.329C169.705 537.404 169.677 537.497 169.658 537.609C169.64 537.702 169.621 537.777 169.602 537.833L169.434 538.533C169.378 538.794 169.304 539.102 169.21 539.457C169.136 539.793 169.07 540.11 169.014 540.409L168.706 541.613L168.482 542.425C168.426 542.649 168.37 542.798 168.314 542.873C168.277 542.929 168.212 542.957 168.118 542.957H166.466C166.373 542.957 166.326 542.92 166.326 542.845C166.326 542.808 166.364 542.677 166.438 542.453C166.588 542.098 166.718 541.744 166.83 541.389C167.521 539.074 167.932 537.562 168.062 536.853C168.23 535.92 168.576 534.716 169.098 533.241C169.266 532.606 169.425 532.028 169.574 531.505C169.63 531.244 169.714 530.926 169.826 530.553C170.181 529.246 170.536 528.024 170.89 526.885L171.59 524.645C171.74 524.066 171.926 523.469 172.15 522.853C172.262 522.573 172.393 522.508 172.542 522.657C172.654 522.732 172.738 522.862 172.794 523.049C172.85 523.236 172.888 523.366 172.906 523.441C172.962 523.665 173.457 524.785 174.39 526.801C174.764 527.566 175.165 528.565 175.594 529.797C175.781 530.338 176.294 531.505 177.134 533.297C177.564 534.174 177.844 534.781 177.974 535.117C178.273 535.77 179.076 537.357 180.382 539.877L180.718 540.577C181.148 541.529 181.474 542.136 181.698 542.397ZM174.362 533.157C174.493 533.138 174.605 533.129 174.698 533.129C174.792 533.129 174.866 533.12 174.922 533.101C174.978 533.082 175.006 533.054 175.006 533.017C175.006 532.98 174.978 532.905 174.922 532.793C174.829 532.625 174.614 532.158 174.278 531.393C173.942 530.609 173.709 530.021 173.578 529.629C173.392 529.181 173.242 528.808 173.13 528.509C173.037 528.21 172.962 528.005 172.906 527.893C172.869 527.8 172.822 527.706 172.766 527.613C172.729 527.52 172.692 527.445 172.654 527.389C172.617 527.333 172.58 527.305 172.542 527.305C172.486 527.305 172.421 527.445 172.346 527.725C172.29 528.005 172.244 528.22 172.206 528.369C171.87 529.452 171.628 530.273 171.478 530.833C171.404 531.113 171.292 531.458 171.142 531.869C171.012 532.261 170.918 532.532 170.862 532.681C170.806 532.868 170.778 533.017 170.778 533.129C170.778 533.241 170.862 533.297 171.03 533.297C171.422 533.297 172.02 533.288 172.822 533.269C173.644 533.232 174.157 533.194 174.362 533.157ZM192.03 523.329C193.318 523.404 194.382 523.926 195.222 524.897C196.081 525.868 196.51 527.324 196.51 529.265C196.51 530.534 196.239 531.542 195.698 532.289C195.157 533.036 194.531 533.558 193.822 533.857C193.113 534.137 192.487 534.277 191.946 534.277C191.442 534.277 190.593 534.333 189.398 534.445C188.707 534.52 188.147 534.566 187.718 534.585C187.681 536.302 187.662 537.469 187.662 538.085C187.662 540.512 187.69 541.828 187.746 542.033C187.783 542.22 187.746 542.388 187.634 542.537C187.541 542.668 187.41 542.761 187.242 542.817C187.093 542.854 186.953 542.845 186.822 542.789C186.766 542.77 186.607 542.761 186.346 542.761C185.786 542.761 185.189 542.798 184.554 542.873C184.255 542.91 184.059 542.854 183.966 542.705C183.873 542.537 183.826 542.285 183.826 541.949C183.826 541.538 183.835 541.165 183.854 540.829L183.882 538.477L183.938 535.173C184.05 531.216 184.106 528.126 184.106 525.905C184.106 525.233 184.097 524.832 184.078 524.701C184.041 524.29 184.022 524.048 184.022 523.973C184.022 523.488 184.125 523.245 184.33 523.245C184.423 523.245 184.61 523.254 184.89 523.273C185.189 523.292 185.599 523.301 186.122 523.301C186.271 523.301 186.654 523.292 187.27 523.273C187.886 523.254 188.53 523.245 189.202 523.245C190.191 523.245 191.134 523.273 192.03 523.329ZM191.162 532.261C191.853 532.261 192.497 532.056 193.094 531.645C193.691 531.234 193.99 530.497 193.99 529.433C193.99 528.294 193.757 527.436 193.29 526.857C192.823 526.26 192.142 525.877 191.246 525.709C189.846 525.429 188.745 525.317 187.942 525.373C187.942 525.896 187.933 526.288 187.914 526.549C187.877 527.594 187.83 528.341 187.774 528.789C187.699 529.442 187.681 530.18 187.718 531.001L187.774 532.093L189.09 532.177C189.594 532.233 190.285 532.261 191.162 532.261ZM205.513 532.205C206.558 532.317 207.482 532.625 208.285 533.129C210.151 534.305 211.085 536.274 211.085 539.037C211.085 540.68 210.45 541.772 209.181 542.313C207.93 542.854 206.614 543.125 205.233 543.125C204.393 543.125 203.058 543.162 201.229 543.237C200.239 543.293 199.539 543.321 199.129 543.321C198.83 543.321 198.634 543.265 198.541 543.153C198.447 543.06 198.401 542.92 198.401 542.733V541.501L198.457 540.045C198.531 538.626 198.569 537.572 198.569 536.881L198.513 533.381L198.485 530.077C198.485 529.554 198.541 528.696 198.653 527.501C198.727 526.642 198.765 526.129 198.765 525.961C198.765 525.662 198.746 525.158 198.709 524.449L198.653 523.413C198.653 523.17 198.821 523.049 199.157 523.049L199.577 523.077C199.726 523.077 199.931 523.058 200.193 523.021C200.473 522.984 200.715 522.965 200.921 522.965C201.201 522.965 201.415 522.974 201.565 522.993C202.237 523.03 203.31 523.049 204.785 523.049C208.182 523.049 209.881 524.682 209.881 527.949C209.881 528.789 209.675 529.498 209.265 530.077C208.854 530.637 208.331 531.085 207.697 531.421C207.081 531.776 206.353 532.037 205.513 532.205ZM199.465 528.705L199.409 529.797C199.409 530.002 199.437 530.124 199.493 530.161C199.567 530.198 199.726 530.217 199.969 530.217L200.781 530.245C201.303 530.282 201.686 530.301 201.929 530.301L202.853 530.273C203.487 530.236 204.001 530.217 204.393 530.217C206.166 530.217 207.053 529.508 207.053 528.089C207.053 526.558 205.811 525.606 203.329 525.233C202.638 525.121 201.873 525.065 201.033 525.065C200.753 525.065 200.277 525.084 199.605 525.121L199.549 525.821C199.53 526.101 199.521 526.493 199.521 526.997L199.465 528.705ZM204.421 541.305C206.829 541.305 208.033 540.39 208.033 538.561C208.033 537.59 207.827 536.806 207.417 536.209C207.025 535.612 206.586 535.182 206.101 534.921C205.615 534.641 205.214 534.482 204.897 534.445C204.598 534.408 203.833 534.352 202.601 534.277C201.369 534.184 200.482 534.128 199.941 534.109C199.642 534.109 199.455 534.137 199.381 534.193C199.306 534.23 199.269 534.314 199.269 534.445C199.269 534.557 199.269 534.734 199.269 534.977C199.287 535.22 199.297 535.593 199.297 536.097C199.297 536.433 199.278 536.9 199.241 537.497L199.213 538.617L199.185 540.577C199.185 540.764 199.203 540.885 199.241 540.941C199.297 540.997 199.381 541.025 199.493 541.025L200.949 541.081C201.229 541.081 201.705 541.118 202.377 541.193C203.273 541.268 203.954 541.305 204.421 541.305ZM219.73 522.965C221.597 522.965 222.997 523.506 223.93 524.589C224.863 525.653 225.461 526.922 225.722 528.397C225.983 529.853 226.114 531.505 226.114 533.353C226.114 534.846 225.89 536.386 225.442 537.973C224.994 539.541 224.303 540.866 223.37 541.949C222.437 543.032 221.289 543.573 219.926 543.573C217.257 543.573 215.483 542.453 214.606 540.213C213.729 537.954 213.29 535.537 213.29 532.961C213.29 530.478 213.626 528.49 214.298 526.997C214.989 525.504 215.819 524.458 216.79 523.861C217.779 523.264 218.759 522.965 219.73 522.965ZM219.702 536.461C220.206 536.461 220.579 536.181 220.822 535.621C221.065 535.061 221.186 534.389 221.186 533.605C221.186 532.858 221.065 532.205 220.822 531.645C220.598 531.085 220.29 530.805 219.898 530.805C219.431 530.805 219.077 531.132 218.834 531.785C218.61 532.42 218.498 533.11 218.498 533.857C218.498 534.622 218.573 535.248 218.722 535.733C218.871 536.218 219.198 536.461 219.702 536.461ZM236.108 531.113C236.202 531.113 236.276 531.076 236.332 531.001C236.407 530.908 236.472 530.796 236.528 530.665C236.584 530.516 236.65 530.385 236.724 530.273L238.264 527.753C239.142 526.316 239.814 525.28 240.28 524.645C240.448 524.421 240.616 524.132 240.784 523.777C241.064 523.236 241.288 522.918 241.456 522.825C241.792 522.676 242.128 522.601 242.464 522.601C242.782 522.601 243.015 522.657 243.164 522.769C243.332 522.881 243.379 523.04 243.304 523.245C243.211 523.525 242.922 523.992 242.436 524.645C242.138 525.018 241.699 525.653 241.12 526.549L240.42 527.613C240.196 527.93 239.758 528.714 239.104 529.965C238.451 531.216 237.975 532.14 237.676 532.737C237.546 532.924 237.48 533.082 237.48 533.213C237.48 533.306 237.546 533.502 237.676 533.801C237.732 533.913 237.994 534.342 238.46 535.089C238.554 535.238 238.656 535.397 238.768 535.565C238.88 535.733 238.983 535.91 239.076 536.097C239.86 537.516 240.504 538.561 241.008 539.233C241.363 539.793 241.736 540.4 242.128 541.053C242.52 541.706 242.828 542.229 243.052 542.621C243.127 542.752 243.164 542.854 243.164 542.929C243.164 543.06 242.996 543.125 242.66 543.125L240.896 543.097C240.784 543.078 240.7 543.032 240.644 542.957C240.588 542.901 240.523 542.78 240.448 542.593L240.14 541.977C240.047 541.772 239.795 541.389 239.384 540.829C238.918 540.194 238.61 539.7 238.46 539.345C238.274 539.009 237.919 538.412 237.396 537.553C236.892 536.676 236.5 536.004 236.22 535.537C236.09 535.35 235.978 535.257 235.884 535.257C235.81 535.257 235.688 535.369 235.52 535.593C235.259 535.91 234.988 536.265 234.708 536.657C234.242 537.292 233.896 537.749 233.672 538.029C233.411 538.365 233.056 538.897 232.608 539.625C232.179 540.353 231.89 540.904 231.74 541.277C231.572 541.632 231.339 541.986 231.04 542.341C230.76 542.696 230.536 542.91 230.368 542.985C230.219 543.022 230.06 543.041 229.892 543.041C229.556 543.041 229.22 542.994 228.884 542.901C228.716 542.845 228.632 542.761 228.632 542.649C228.632 542.556 228.688 542.416 228.8 542.229C228.912 542.042 228.996 541.912 229.052 541.837C229.164 541.65 229.463 541.221 229.948 540.549C230.452 539.858 230.816 539.354 231.04 539.037C231.04 539.037 231.339 538.626 231.936 537.805C232.16 537.506 232.618 536.834 233.308 535.789C233.738 535.08 234.083 534.566 234.344 534.249C234.568 533.932 234.68 533.642 234.68 533.381C234.68 533.194 234.615 532.97 234.484 532.709C234.391 532.522 234.074 531.972 233.532 531.057L232.216 528.677C231.974 528.21 231.274 527.081 230.116 525.289C229.575 524.468 229.22 523.908 229.052 523.609C228.922 523.404 228.856 523.236 228.856 523.105C228.856 522.937 228.959 522.853 229.164 522.853C229.463 522.853 229.696 522.844 229.864 522.825L230.676 522.797C230.826 522.816 230.956 522.89 231.068 523.021C231.199 523.152 231.348 523.357 231.516 523.637L231.908 524.225L232.216 524.729C232.888 525.793 233.402 526.624 233.756 527.221C234.092 527.818 234.587 528.658 235.24 529.741C235.539 530.245 235.828 530.702 236.108 531.113Z" fill="white"/>
<defs>
<clipPath id="clip0_138_6">
<rect width="19.9983" height="10.7381" fill="white" transform="matrix(0 -1 1 0 364.475 128.989)"/>
</clipPath>
<clipPath id="clip1_138_6">
<rect width="19.9983" height="10.7381" fill="white" transform="matrix(0 1 -1 0 375.213 132.989)"/>
</clipPath>
<clipPath id="clip2_138_6">
<rect width="19.9983" height="10.7381" fill="white" transform="matrix(0 -1 1 0 364.475 376.969)"/>
</clipPath>
<clipPath id="clip3_138_6">
<rect width="19.9983" height="10.7381" fill="white" transform="matrix(0 1 -1 0 375.213 380.968)"/>
</clipPath>
<clipPath id="clip4_138_6">
<rect width="19.9983" height="10.7381" fill="white" transform="matrix(0 -1 1 0 8.80859 128.989)"/>
</clipPath>
<clipPath id="clip5_138_6">
<rect width="19.9983" height="10.7381" fill="white" transform="matrix(0 1 -1 0 19.5469 132.989)"/>
</clipPath>
<clipPath id="clip6_138_6">
<rect width="19.9983" height="10.7381" fill="white" transform="matrix(0 -1 1 0 8.80859 378.968)"/>
</clipPath>
<clipPath id="clip7_138_6">
<rect width="19.9983" height="10.7381" fill="white" transform="matrix(0 1 -1 0 19.5469 382.969)"/>
</clipPath>
</defs>
</svg>
